<svg xmlns="http://www.w3.org/2000/svg">
	<symbol viewBox="0 0 54 54" id="icon-email">
		<path d="M27 54c14.912 0 27-12.088 27-27S41.912 0 27 0 0 12.088 0 27s12.088 27 27 27z" style="fill:#E7E7E7; fill:var(--icon-bg, #E7E7E7);"/>
		<circle cx="27" cy="27" r="26.5" fill="none" style="stroke:none; stroke:var(--icon-bc, none);"/>
		<path d="M42.424 22.701v13.667c0 .757-.27 1.406-.81 1.945a2.651 2.651 0 0 1-1.944.81H14.33c-.757 0-1.406-.27-1.945-.81a2.65 2.65 0 0 1-.81-1.945V22.701a9.123 9.123 0 0 0 1.739 1.497l8.555 5.938 1.593 1.128s.95.545 1.626.826c.678.282 1.308.422 1.895.422h.034c.585 0 1.216-.14 1.894-.422.679-.282 1.22-.556 1.627-.826.407-.27.937-.646 1.593-1.128 1.95-1.412 4.808-3.39 8.572-5.938a9.445 9.445 0 0 0 1.72-1.497zm0-5.06c0 .906-.282 1.772-.843 2.599a8.166 8.166 0 0 1-2.1 2.117l-8.056 5.59-.732.524-.93.654a18.1 18.1 0 0 1-.895.56c-.35.206-.674.362-.99.464a2.79 2.79 0 0 1-.86.155h-.035c-.264 0-.551-.051-.86-.155a5.254 5.254 0 0 1-.99-.464c-.35-.206-.65-.393-.896-.56a37.04 37.04 0 0 1-.93-.654l-.732-.525-4.51-3.141-3.528-2.458c-.711-.482-1.383-1.145-2.014-1.989-.632-.843-.947-1.626-.947-2.35 0-.894.238-1.64.714-2.237.477-.597 1.156-.895 2.04-.895h25.338c.745 0 1.391.27 1.936.81.545.54.818 1.188.817 1.945h.002l.001.01z" style="fill:black; fill:var(--icon-fg, black)"/>
	</symbol>
	<symbol viewBox="0 0 54 54" id="icon-facebook">
		<path d="M27 54c14.912 0 27-12.088 27-27S41.912 0 27 0 0 12.088 0 27s12.088 27 27 27z" style="fill:#E7E7E7; fill:var(--icon-bg, #E7E7E7);"/>
		<circle cx="27" cy="27" r="26.5" fill="none" style="stroke:none; stroke:var(--icon-bc, none);"/>
		<path d="M29.571 19.546v-2.894c0-1.42.929-1.748 1.584-1.748h4.041V8.68h-5.625c-6.225 0-7.645 4.642-7.645 7.59v3.277H18.32v7.264h3.605v18.13h7.263V26.81h5.352l.273-2.84.382-4.424h-5.625z" style="fill:black; fill:var(--icon-fg, black)"/>
	</symbol>
	<symbol viewBox="0 0 54 54" id="icon-glassdoor">
		<path d="M27 54c14.912 0 27-12.088 27-27S41.912 0 27 0 0 12.088 0 27s12.088 27 27 27z" style="fill:#E7E7E7; fill:var(--icon-bg, #E7E7E7);"/>
		<circle cx="27" cy="27" r="26.5" fill="none" style="stroke:none; stroke:var(--icon-bc, none);"/>
		<path fill-rule="evenodd" clip-rule="evenodd" d="M34.156 10.304a4.77 4.77 0 0 1 4.77 4.77H19.84v19.593a.174.174 0 0 1-.174.173h-4.428a.173.173 0 0 1-.173-.173V15.074a4.769 4.769 0 0 1 4.775-4.77h14.316zm0 28.62H15.074a4.77 4.77 0 0 0 4.766 4.771h14.316a4.77 4.77 0 0 0 4.77-4.77V19.33a.174.174 0 0 0-.174-.172H34.33a.174.174 0 0 0-.174.172v19.593z" style="fill:black; fill:var(--icon-fg, black)"/>
	</symbol>
	<symbol viewBox="0 0 54 54" id="icon-instagram">
		<path d="M27 54c14.912 0 27-12.088 27-27S41.912 0 27 0 0 12.088 0 27s12.088 27 27 27z" style="fill:#E7E7E7; fill:var(--icon-bg, #E7E7E7);"/>
		<circle cx="27" cy="27" r="26.5" fill="none" style="stroke:none; stroke:var(--icon-bc, none);"/>
		<path d="M27 10.125c-4.583 0-5.158.02-6.958.101-1.796.082-3.022.368-4.096.785a8.271 8.271 0 0 0-2.989 1.946 8.271 8.271 0 0 0-1.946 2.99c-.417 1.073-.702 2.3-.784 4.095-.083 1.8-.102 2.375-.102 6.958s.02 5.158.101 6.958c.082 1.796.368 3.022.785 4.096a8.274 8.274 0 0 0 1.946 2.989 8.272 8.272 0 0 0 2.99 1.946c1.073.417 2.3.703 4.095.785 1.8.082 2.375.101 6.958.101s5.158-.02 6.958-.102c1.796-.082 3.022-.367 4.096-.784a8.272 8.272 0 0 0 2.989-1.946 8.272 8.272 0 0 0 1.946-2.99c.417-1.073.703-2.3.785-4.095.082-1.8.101-2.375.101-6.958s-.02-5.158-.102-6.958c-.082-1.796-.367-3.022-.784-4.096a8.271 8.271 0 0 0-1.946-2.989 8.272 8.272 0 0 0-2.99-1.946c-1.073-.417-2.3-.702-4.095-.784-1.8-.083-2.375-.102-6.958-.102zm0 3.04c4.506 0 5.04.018 6.819.099 1.645.075 2.539.35 3.133.581.788.306 1.35.672 1.94 1.262.591.59.957 1.153 1.263 1.94.231.595.506 1.489.581 3.134.081 1.78.099 2.313.099 6.819s-.018 5.04-.099 6.819c-.075 1.645-.35 2.539-.581 3.133a5.227 5.227 0 0 1-1.262 1.94c-.59.591-1.153.957-1.94 1.263-.595.231-1.489.506-3.134.581-1.78.081-2.313.099-6.819.099s-5.04-.018-6.819-.099c-1.645-.075-2.539-.35-3.133-.581a5.227 5.227 0 0 1-1.94-1.262 5.228 5.228 0 0 1-1.263-1.94c-.231-.595-.506-1.489-.581-3.134-.081-1.78-.098-2.313-.098-6.819s.017-5.04.098-6.819c.075-1.645.35-2.539.581-3.133a5.228 5.228 0 0 1 1.262-1.94 5.227 5.227 0 0 1 1.94-1.263c.595-.231 1.489-.506 3.134-.581 1.78-.081 2.313-.098 6.819-.098" style="fill:black; fill:var(--icon-fg, black)"/>
		<path d="M27 32.625a5.625 5.625 0 1 1 0-11.25 5.625 5.625 0 0 1 0 11.25zm0-14.29a8.665 8.665 0 1 0 0 17.33 8.665 8.665 0 0 0 0-17.33zm11.033-.343a2.025 2.025 0 1 1-4.05 0 2.025 2.025 0 0 1 4.05 0z" style="fill:black; fill:var(--icon-fg, black)"/>
	</symbol>
	<symbol viewBox="0 0 54 54" id="icon-linkedin">
		<path d="M27 54c14.912 0 27-12.088 27-27S41.912 0 27 0 0 12.088 0 27s12.088 27 27 27z" style="fill:#E7E7E7; fill:var(--icon-bg, #E7E7E7);"/>
		<circle cx="27" cy="27" r="26.5" fill="none" style="stroke:none; stroke:var(--icon-bc, none);"/>
		<path d="M11.716 25.987v15.67h7.473v-21.36h-7.473v5.69zM15.428 17.068a3.713 3.713 0 1 0 0-7.425 3.713 3.713 0 0 0 0 7.425zM43.537 26.855c-.482-4.002-2.362-6.557-7.81-6.557-3.231 0-5.4 1.205-6.269 2.893h-.096v-2.893h-5.93v21.359h6.22V31.05c0-2.797.53-5.497 3.953-5.497 3.375 0 3.664 3.182 3.664 5.69v10.414h6.413V29.893c0-1.061-.049-2.122-.145-3.038z" style="fill:black; fill:var(--icon-fg, black)"/>
	</symbol>
	<symbol viewBox="0 0 54 54" id="icon-phone">
		<path d="M27 54c14.912 0 27-12.088 27-27S41.912 0 27 0 0 12.088 0 27s12.088 27 27 27z" style="fill:#E7E7E7; fill:var(--icon-bg, #E7E7E7);"/>
		<circle cx="27" cy="27" r="26.5" fill="none" style="stroke:none; stroke:var(--icon-bc, none);"/>
		<path d="M27.97 12.386c7.97 1.2 11.648 4.918 12.66 12.791v.179c.044.713-.115 1.644.859 1.658.843 0 .892-.607.867-1.224v-.555c.092-7.415-6.504-14.29-14.16-14.541-.579.082-1.774-.39-1.847.877-.048.863.955.714 1.62.815z" style="fill:black; fill:var(--icon-fg, black)"/>
		<path d="M29.527 14.541c-.767-.086-1.78-.443-1.958.598-.178 1.042.965.965 1.664 1.148 4.923 1.075 6.639 2.835 7.449 7.622.034.203.038.44.058.666.048.554.178 1.065 1.036.935a.67.67 0 0 0 .632-.636c.043-.319 0-.695 0-.965.053-4.604-3.963-8.784-8.881-9.368z" style="fill:black; fill:var(--icon-fg, black)"/>
		<path d="M29.98 18.303c-.51 0-1.017.067-1.205.602-.28.8.314.993.921 1.09 2.02.318 3.081 1.485 3.284 3.457.016.237.108.463.26.646a.751.751 0 0 0 .665.265.878.878 0 0 0 .405-.145 1.293 1.293 0 0 0 .372-1.186c.038-2.218-2.522-4.782-4.701-4.73zM40.192 33.822c-.993-.786-2.059-1.49-3.105-2.213-2.088-1.447-3.997-1.548-5.554.767-.878 1.297-2.103 1.354-3.375.785-3.53-1.571-6.268-3.987-7.855-7.507a4.409 4.409 0 0 1-.433-1.586c-.053-.92.323-1.755 1.388-2.463.878-.584 1.76-1.273 1.688-2.546-.092-1.659-4.2-7.203-5.82-7.787a3.008 3.008 0 0 0-2.025 0c-3.804 1.254-5.376 4.34-3.857 7.95a43.233 43.233 0 0 0 2.864 5.71c4.686 7.83 11.571 13.523 20.457 17.27.542.202 1.098.363 1.664.482 2.483 0 5.39-2.324 6.229-4.648.796-2.257-.911-3.144-2.266-4.214z" style="fill:black; fill:var(--icon-fg, black)"/>
	</symbol>
	<symbol viewBox="0 0 55 55" id="icon-twitter">
		<path fill="#E7E7E7" d="M27.9 54.5a27 27 0 1 0 0-54 27 27 0 0 0 0 54Z" style="fill:#E7E7E7; fill:var(--icon-bg, #E7E7E7);" />
		<circle cx="27" cy="27" r="26.5" fill="none" style="stroke:none; stroke:var(--icon-bc, none);" />
		<path fill="#000" d="m30.46 25.4 9.98-11.55h-2.36L29.4 23.9l-6.93-10.04H14.5l10.47 15.17L14.5 41.14h2.36l9.16-10.6 7.31 10.6h7.99L30.46 25.41Zm-3.24 3.76-1.06-1.51-8.45-12.02h3.64l6.81 9.7 1.06 1.5 8.86 12.62h-3.64l-7.22-10.3Z" style="fill:black; fill:var(--icon-fg, black)"/>
	</symbol>
	<symbol viewBox="0 0 54 54" id="icon-wechat">
		<path d="M27 54c14.912 0 27-12.088 27-27S41.912 0 27 0 0 12.088 0 27s12.088 27 27 27z" style="fill:#E7E7E7; fill:var(--icon-bg, #E7E7E7);"/>
		<circle cx="27" cy="27" r="26.5" fill="none" style="stroke:none; stroke:var(--icon-bc, none);"/>
		<path d="M20.462 33.948a8.189 8.189 0 0 1-3.369-.71l-5.005 3.395 1.461-5.8c-1.348-.903-2.472-2.161-3.27-3.661a11.322 11.322 0 0 1-1.306-4.934C8.973 16.006 14.58 11 21.494 11c6.913 0 12.171 4.706 12.502 10.614h-.428c-5.842 0-10.438 4.298-10.438 9.39.005.728.103 1.451.292 2.149.795 2.218 2.203 4.103 4.024 5.387 1.822 1.285 3.964 1.903 6.122 1.768a11.812 11.812 0 0 0 3.038-.387l4.888 3.309-1.364-4.92a8.519 8.519 0 0 0 2.79-3.107 9.565 9.565 0 0 0 1.105-4.199c-.112-1.978-.78-3.869-1.91-5.41-1.131-1.54-2.669-2.653-4.4-3.185" fill="none" stroke-width="2" stroke-linecap="round" stroke-linejoin="round" style="stroke:black; stroke:var(--icon-fg, black)"/>
	</symbol>
	<symbol viewBox="0 0 54 54" id="icon-youtube">
		<path d="M27 54c14.912 0 27-12.088 27-27S41.912 0 27 0 0 12.088 0 27s12.088 27 27 27z" style="fill:#E7E7E7; fill:var(--icon-bg, #E7E7E7);"/>
		<circle cx="27" cy="27" r="26.5" fill="none" style="stroke:none; stroke:var(--icon-bc, none);"/>
		<path d="M43.292 17.331a5.187 5.187 0 0 0-1.102-2.213 4.17 4.17 0 0 0-1.904-1.28C37.633 13 27 13 27 13s-10.636 0-13.283.826a4.164 4.164 0 0 0-1.905 1.279 5.18 5.18 0 0 0-1.101 2.213C10 20.398 10 26.825 10 26.825s0 6.429.71 9.508a5.18 5.18 0 0 0 1.102 2.213 4.164 4.164 0 0 0 1.905 1.279c2.65.826 13.283.826 13.283.826s10.636 0 13.286-.826a4.169 4.169 0 0 0 1.902-1.274c.527-.61.908-1.37 1.104-2.205.708-3.08.708-9.508.708-9.508s-.008-6.428-.708-9.507z" style="fill:black; fill:var(--icon-fg, black)"/>
		<path d="M23.607 31.852V21.797l9.067 5.027-9.067 5.028z" style="fill:#E7E7E7; fill:var(--icon-bg, #E7E7E7)"/>
	</symbol>
</svg>
